<?xml version="1.0" encoding="UTF-8"?>
<svg width="300px" height="88px" viewBox="0 0 300 88" version="1.1" xmlns="http://www.w3.org/2000/svg" xmlns:xlink="http://www.w3.org/1999/xlink">
    <title>chota-logo</title>
    <defs>
        <linearGradient x1="50%" y1="3.92617985%" x2="50%" y2="100%" id="linearGradient-1">
            <stop stop-color="#37E1EC" offset="0%"></stop>
            <stop stop-color="#27CD7F" offset="100%"></stop>
        </linearGradient>
    </defs>
    <g id="Page-1" stroke="none" stroke-width="1" fill="none" fill-rule="evenodd">
        <g id="chota-logo" fill="url(#linearGradient-1)">
            <path d="M35.919433,65.2368519 C38.3812134,63.6702645 40.2461705,62.8869825 41.5143603,62.8869825 C43.7523424,62.8869825 46.4751798,64.863837 49.6829541,68.8176054 C51.3987404,70.9809881 52.2566207,72.9205435 52.2566207,74.6363297 C52.2566207,77.471107 50.2051678,80.1193461 46.1022007,82.5811264 C41.8500347,85.5651026 36.6281548,87.0570683 30.4364043,87.0570683 C27.0794312,87.0570683 23.6665597,86.4043333 20.1976874,85.0988437 C16.7288152,83.7933542 13.4651402,81.9470466 10.4065647,79.5598657 C7.34798918,77.1726848 4.84894666,73.9836082 2.90936218,69.9925401 C0.969777695,66.001472 0,61.5815237 0,56.7325625 C0,51.9582007 0.969777695,47.6128506 2.90936218,43.6963819 C4.84894666,39.7799133 7.32933961,36.6281358 10.3506154,34.2409549 C13.3718913,31.853774 16.6169166,30.026116 20.0857889,28.7579261 C23.5546611,27.4897363 26.9302335,26.8556509 30.2126072,26.8556509 C33.0473846,26.8556509 35.8075211,27.2472919 38.4930996,28.0305856 C41.1786781,28.8138793 43.1555326,29.5785117 44.4237225,30.3245058 L46.2140992,31.4434912 C47.5568885,32.3386841 48.5826149,33.0473678 49.2913092,33.5695636 C50.0000035,34.0917594 50.6713881,34.8190927 51.305483,35.7515852 C51.939578,36.6840778 52.2566207,37.7098042 52.2566207,38.8287952 C52.2566207,40.6191809 51.4733387,42.7079329 49.9067512,45.0951138 C47.2211727,49.1980809 44.6475319,51.2495338 42.1857516,51.2495338 C40.7683629,51.2495338 38.7542093,50.4289526 36.1432301,48.7877658 C34.8004409,47.5195759 32.8235863,46.8854905 30.2126072,46.8854905 C27.8254263,46.8854905 25.5501787,47.7806699 23.386796,49.5710556 C21.2234133,51.3614413 20.1417382,53.8231846 20.1417382,56.9563596 C20.1417382,60.1641339 21.1861141,62.6445269 23.2748974,64.3976128 C25.3636807,66.1506988 27.6016292,67.0272286 29.9888101,67.0272286 C31.1824006,67.0272286 32.2640757,66.8780321 33.233868,66.5796345 C34.2036602,66.2812369 34.8750448,65.9828437 35.2480418,65.6844461 L35.919433,65.2368519 Z M91.5330101,27.7508392 C98.9929504,27.7508392 105.203258,30.585574 110.164118,36.2551287 C115.124978,41.9246833 117.605371,48.8623238 117.605371,57.0682581 L117.605371,76.7624021 C117.605371,78.4781884 117.549422,79.7650088 117.437523,80.6229019 C117.325624,81.480795 116.989932,82.4505727 116.430436,83.5322641 C115.870941,84.6139554 114.882514,85.3785878 113.465125,85.8261843 C112.047736,86.2737807 110.14548,86.4975755 107.758299,86.4975755 C105.445718,86.4975755 103.59941,86.2737807 102.219321,85.8261843 C100.839232,85.3785878 99.8508049,84.6139554 99.2540097,83.5322641 C98.6572145,82.4505727 98.3028726,81.4621455 98.1909735,80.5669526 C98.0790744,79.6717598 98.0231257,78.3289907 98.0231257,76.538605 L98.0231257,56.9563596 C98.0231257,53.897784 97.1652454,51.5106389 95.4494592,49.7948527 C93.7336729,48.0790664 91.5330235,47.2211861 88.847445,47.2211861 C86.2364659,47.2211861 83.9239191,48.0231177 81.9097352,49.6270048 C79.8955513,51.230892 78.7392779,53.0399004 78.4408803,55.0540843 L78.4408803,76.7624021 C78.4408803,78.4781884 78.3849316,79.7650088 78.2730325,80.6229019 C78.1611333,81.480795 77.8254411,82.4505727 77.2659455,83.5322641 C76.70645,84.6139554 75.7180228,85.3785878 74.3006341,85.8261843 C72.8832454,86.2737807 70.9809892,86.4975755 68.5938083,86.4975755 C66.2812268,86.4975755 64.4162697,86.2737807 62.998881,85.8261843 C61.5814924,85.3785878 60.5930651,84.5953059 60.0335696,83.4763148 C59.474074,82.3573238 59.1383818,81.3875461 59.0264827,80.5669526 C58.9145836,79.7463592 58.8586348,78.4408892 58.8586348,76.6505035 L58.8586348,9.73517344 C58.8586348,8.01938717 58.9145836,6.73256677 59.0264827,5.87467363 C59.1383818,5.01678049 59.474074,4.0470028 60.0335696,2.96531145 C60.5930651,1.8836201 61.5814924,1.11898769 62.998881,0.671391272 C64.4162697,0.223794853 66.3185259,0 68.7057068,0 C71.0182883,0 72.8832454,0.223794853 74.3006341,0.671391272 C75.7180228,1.11898769 76.70645,1.90226968 77.2659455,3.02126072 C77.8254411,4.14025177 78.1611333,5.12867904 78.2730325,5.98657217 C78.3849316,6.84446531 78.4408803,8.13128571 78.4408803,9.84707199 L78.4408803,34.5766505 C82.1708504,30.0260869 86.5348501,27.7508392 91.5330101,27.7508392 Z M155.538978,26.1842596 C163.744912,26.1842596 170.943647,29.0749431 177.135397,34.8563969 C183.327148,40.6378506 186.422977,48.0044312 186.422977,56.9563596 C186.422977,63.14811 184.819113,68.6497335 181.611339,73.461395 C178.403565,78.2730565 174.505804,81.816475 169.917941,84.0917568 C165.330078,86.3670386 160.611736,87.5046624 155.762775,87.5046624 C150.764615,87.5046624 145.953026,86.2924403 141.327863,83.8679597 C136.7027,81.4434791 132.804939,77.8627615 129.634465,73.1256994 C126.46399,68.3886373 124.878777,63.0362104 124.878777,57.0682581 C124.878777,48.1163297 128.011905,40.7310996 134.278254,34.9123461 C140.544604,29.0935927 147.631441,26.1842596 155.538978,26.1842596 Z M155.538978,67.8105185 C158.000758,67.8105185 160.462502,66.8780399 162.924282,65.0130548 C165.386062,63.1480698 166.616934,60.3879332 166.616934,56.7325625 C166.616934,53.0771917 165.460661,50.3543543 163.148079,48.5639687 C160.835498,46.773583 158.261857,45.8784036 155.427079,45.8784036 C152.8907,45.8784036 150.466256,46.8108821 148.153674,48.6758672 C145.841093,50.5408523 144.684819,53.2636897 144.684819,56.844461 C144.684819,60.4998318 145.878392,63.2413187 148.265573,65.0690041 C150.652753,66.8966895 153.077198,67.8105185 155.538978,67.8105185 Z M226.258859,47.3330847 L218.985453,46.8854905 L218.985453,62.3274897 C218.985453,64.3416736 219.302496,65.7963402 219.936591,66.691533 C220.570686,67.5867258 221.70831,68.0343156 223.349496,68.0343156 C225.214482,68.0343156 226.613199,68.0902643 227.545692,68.2021634 C228.478184,68.3140625 229.447962,68.6497548 230.455054,69.2092503 C231.462146,69.7687458 232.15218,70.6452756 232.525177,71.8388661 C232.898174,73.0324565 233.08467,74.6736188 233.08467,76.7624021 C233.08467,79.0749836 232.842225,80.9399407 232.357329,82.3573294 C231.872433,83.774718 231.070502,84.7631453 229.951511,85.3226408 C228.83252,85.8821363 227.844092,86.2178286 226.986199,86.3297277 C226.128306,86.4416268 224.878785,86.4975755 223.237598,86.4975755 C215.47926,86.4975755 209.585996,84.7445159 205.557628,81.2383439 C201.52926,77.732172 199.515106,71.8016084 199.515106,63.4464752 L199.515106,46.8854905 C198.097718,47.1092887 196.754949,47.2211861 195.486759,47.2211861 C193.472575,47.2211861 191.92466,46.5871007 190.842969,45.3189109 C189.761278,44.050721 189.22044,41.4024819 189.22044,37.3741141 C189.22044,35.2853308 189.406936,33.5509207 189.779933,32.1708318 C190.15293,30.7907428 190.693767,29.8023156 191.402462,29.2055203 C192.111156,28.6087251 192.80119,28.2170841 193.472585,28.0305856 C194.143979,27.8440871 194.927261,27.7508392 195.822454,27.7508392 L199.515106,28.1984334 L199.515106,16.6728833 C199.515106,14.957097 199.571055,13.6889261 199.682954,12.8683327 C199.794853,12.0477393 200.130546,11.1339103 200.690041,10.1268184 C201.249537,9.11972641 202.237964,8.41104271 203.655352,8.00074599 C205.072741,7.59044927 206.974997,7.38530399 209.362178,7.38530399 C211.227163,7.38530399 212.775078,7.5717997 214.005968,7.94479672 C215.236858,8.31779373 216.187986,8.74673387 216.859381,9.23162999 C217.530775,9.71652611 218.034314,10.462509 218.370011,11.4696009 C218.705709,12.4766928 218.892204,13.3532227 218.929504,14.0992167 C218.966804,14.8452107 218.985453,15.8895867 218.985453,17.232376 L218.985453,28.1984334 C222.267827,27.9000358 224.72957,27.7508392 226.370757,27.7508392 C228.086543,27.7508392 229.373364,27.806788 230.231257,27.9186871 C231.08915,28.0305862 232.058928,28.3662784 233.140619,28.925774 C234.222311,29.4852695 234.986943,30.4736968 235.434539,31.8910854 C235.882136,33.3084741 236.105931,35.2107303 236.105931,37.5979112 C236.105931,39.9104927 235.882136,41.7754498 235.434539,43.1928385 C234.986943,44.6102272 234.203661,45.5986544 233.08467,46.1581499 C231.965679,46.7176455 230.977252,47.0533377 230.119358,47.1652369 C229.261465,47.277136 227.974645,47.3330847 226.258859,47.3330847 Z M290.264827,27.5270421 C292.577408,27.5270421 294.442365,27.750837 295.859754,28.1984334 C297.277142,28.6460298 298.26557,29.4293118 298.825065,30.5483029 C299.384561,31.6672939 299.720253,32.6557212 299.832152,33.5136143 C299.944051,34.3715075 300,35.6583279 300,37.3741141 L300,76.538605 C300,78.2543913 299.944051,79.5412117 299.832152,80.3991048 C299.720253,81.2569979 299.384561,82.2267756 298.825065,83.308467 C298.26557,84.3901583 297.277142,85.1547907 295.859754,85.6023872 C294.442365,86.0499836 292.540109,86.2737784 290.152928,86.2737784 C286.795955,86.2737784 284.427459,85.77024 283.04737,84.7631481 C281.667281,83.7560561 280.86535,82.28274 280.641552,80.3431555 C277.881374,84.2969239 273.405477,86.2737784 267.213726,86.2737784 C260.49978,86.2737784 254.382721,83.3271462 248.862365,77.4337934 C243.342009,71.5404405 240.581872,64.6400992 240.581872,56.7325625 C240.581872,49.0488239 243.360659,42.2790297 248.918314,36.4229765 C254.47597,30.5669233 260.574379,27.6389407 267.213726,27.6389407 C269.750106,27.6389407 272.062653,28.0865304 274.151436,28.9817232 C276.240219,29.8769161 277.694886,30.7161468 278.515479,31.4994405 C279.336073,32.2827342 280.007457,33.0473667 280.529653,33.7933607 C280.753451,31.7045774 281.555383,30.1380134 282.935472,29.0936218 C284.315561,28.0492301 286.758655,27.5270421 290.264827,27.5270421 Z M270.234987,66.691533 C272.920565,66.691533 275.177164,65.6844562 277.004849,63.6702723 C278.832534,61.6560884 279.746363,59.4181399 279.746363,56.9563596 C279.746363,54.5691787 278.869833,52.3312301 277.116747,50.2424468 C275.363662,48.1536636 272.995166,47.1092876 270.01119,47.1092876 C267.101813,47.1092876 264.733318,48.1536636 262.905632,50.2424468 C261.077947,52.3312301 260.164118,54.6064778 260.164118,57.0682581 C260.164118,59.5300384 261.133896,61.7493374 263.07348,63.7262216 C265.013065,65.7031057 267.40021,66.691533 270.234987,66.691533 Z" id="logo"></path>
        </g>
    </g>
</svg>
