<?xml version="1.0" encoding="UTF-8"?>
<svg width="300px" viewBox="134 115 231 68" version="1.1" xmlns="http://www.w3.org/2000/svg" xmlns:xlink="http://www.w3.org/1999/xlink">
    <defs>
        <linearGradient x1="50%" y1="3.92617985%" x2="50%" y2="100%" id="linearGradient-1">
            <stop stop-color="#37e1ec" offset="0%"></stop>
            <stop stop-color="#27cd7f" offset="100%"></stop>
        </linearGradient>
    </defs>
    <path d="M161.756,165.66 C163.648009,164.455994 165.081328,163.854 166.056,163.854 C167.776009,163.854 169.868654,165.373318 172.334,168.412 C173.652673,170.074675 174.312,171.565327 174.312,172.884 C174.312,175.062678 172.735349,177.097991 169.582,178.99 C166.313984,181.283345 162.30069,182.43 157.542,182.43 C154.961987,182.43 152.339013,181.928338 149.673,180.925 C147.006987,179.921662 144.498678,178.502676 142.148,176.668 C139.797322,174.833324 137.876674,172.382349 136.386,169.315 C134.895326,166.247651 134.15,162.850685 134.15,159.124 C134.15,155.454648 134.895326,152.115015 136.386,149.105 C137.876674,146.094985 139.782988,143.672676 142.105,141.838 C144.427012,140.003324 146.920987,138.598672 149.587,137.624 C152.253013,136.649328 154.847321,136.162 157.37,136.162 C159.548678,136.162 161.66999,136.462997 163.734,137.065 C165.79801,137.667003 167.317328,138.254664 168.292,138.828 L169.668,139.688 C170.700005,140.376003 171.488331,140.920665 172.033,141.322 C172.577669,141.723335 173.093664,142.28233 173.581,142.999 C174.068336,143.71567 174.312,144.503996 174.312,145.364 C174.312,146.740007 173.710006,148.345324 172.506,150.18 C170.44199,153.333349 168.464009,154.91 166.572,154.91 C165.482661,154.91 163.934677,154.27934 161.928,153.018 C160.895995,152.043328 159.376677,151.556 157.37,151.556 C155.535324,151.556 153.786675,152.243993 152.124,153.62 C150.461325,154.996007 149.63,156.887988 149.63,159.296 C149.63,161.761346 150.432659,163.66766 152.038,165.015 C153.643341,166.36234 155.363324,167.036 157.198,167.036 C158.115338,167.036 158.946663,166.921334 159.692,166.692 C160.437337,166.462666 160.953332,166.233334 161.24,166.004 L161.756,165.66 Z M204.498,136.85 C210.231362,136.85 215.004314,139.028645 218.817,143.386 C222.629686,147.743355 224.536,153.075302 224.536,159.382 L224.536,174.518 C224.536,175.836673 224.493,176.825663 224.407,177.485 C224.321,178.144337 224.063002,178.889663 223.633,179.721 C223.202998,180.552337 222.443339,181.139998 221.354,181.484 C220.264661,181.828002 218.802676,182 216.968,182 C215.190658,182 213.771672,181.828002 212.711,181.484 C211.650328,181.139998 210.890669,180.552337 210.432,179.721 C209.973331,178.889663 209.701,178.130003 209.615,177.442 C209.529,176.753997 209.486,175.722007 209.486,174.346 L209.486,159.296 C209.486,156.945322 208.826673,155.110673 207.508,153.792 C206.189327,152.473327 204.49801,151.814 202.434,151.814 C200.427323,151.814 198.650008,152.430327 197.102,153.663 C195.553992,154.895673 194.665334,156.285992 194.436,157.834 L194.436,174.518 C194.436,175.836673 194.393,176.825663 194.307,177.485 C194.221,178.144337 193.963002,178.889663 193.533,179.721 C193.102998,180.552337 192.343339,181.139998 191.254,181.484 C190.164661,181.828002 188.702676,182 186.868,182 C185.090658,182 183.657339,181.828002 182.568,181.484 C181.478661,181.139998 180.719002,180.538004 180.289,179.678 C179.858998,178.817996 179.601,178.07267 179.515,177.442 C179.429,176.81133 179.386,175.808007 179.386,174.432 L179.386,123.004 C179.386,121.685327 179.429,120.696337 179.515,120.037 C179.601,119.377663 179.858998,118.632337 180.289,117.801 C180.719002,116.969663 181.478661,116.382002 182.568,116.038 C183.657339,115.693998 185.119324,115.522 186.954,115.522 C188.731342,115.522 190.164661,115.693998 191.254,116.038 C192.343339,116.382002 193.102998,116.983996 193.533,117.844 C193.963002,118.704004 194.221,119.463663 194.307,120.123 C194.393,120.782337 194.436,121.771327 194.436,123.09 L194.436,142.096 C197.302681,138.598649 200.656647,136.85 204.498,136.85 Z M253.69,135.646 C259.996698,135.646 265.52931,137.867644 270.288,142.311 C275.04669,146.754356 277.426,152.415966 277.426,159.296 C277.426,164.05469 276.193346,168.282982 273.728,171.981 C271.262654,175.679018 268.267018,178.402325 264.741,180.151 C261.214982,181.899675 257.588685,182.774 253.862,182.774 C250.020647,182.774 246.322684,181.842343 242.768,179.979 C239.213316,178.115657 236.217679,175.363685 233.781,171.723 C231.344321,168.082315 230.126,163.96869 230.126,159.382 C230.126,152.501966 232.533976,146.826022 237.35,142.354 C242.166024,137.881978 247.612636,135.646 253.69,135.646 Z M253.69,167.638 C255.582009,167.638 257.473991,166.92134 259.366,165.488 C261.258009,164.05466 262.204,161.933347 262.204,159.124 C262.204,156.314653 261.315342,154.222007 259.538,152.846 C257.760658,151.469993 255.782678,150.782 253.604,150.782 C251.654657,150.782 249.791342,151.49866 248.014,152.932 C246.236658,154.365341 245.348,156.457986 245.348,159.21 C245.348,162.019347 246.265324,164.126326 248.1,165.531 C249.934676,166.935674 251.797991,167.638 253.69,167.638 Z M308.042,151.9 L302.452,151.556 L302.452,163.424 C302.452,164.972008 302.695664,166.089997 303.183,166.778 C303.670336,167.466003 304.54466,167.81 305.806,167.81 C307.239341,167.81 308.31433,167.853 309.031,167.939 C309.74767,168.025 310.492996,168.282998 311.267,168.713 C312.041004,169.143002 312.571332,169.816662 312.858,170.734 C313.144668,171.651338 313.288,172.912659 313.288,174.518 C313.288,176.295342 313.101669,177.728661 312.729,178.818 C312.356331,179.907339 311.740004,180.666998 310.88,181.097 C310.019996,181.527002 309.260337,181.785 308.601,181.871 C307.941663,181.957 306.98134,182 305.72,182 C299.757304,182 295.228015,180.65268 292.132,177.958 C289.035985,175.26332 287.488,170.705365 287.488,164.284 L287.488,151.556 C286.398661,151.728001 285.366672,151.814 284.392,151.814 C282.843992,151.814 281.654337,151.326672 280.823,150.352 C279.991663,149.377328 279.576,147.342015 279.576,144.246 C279.576,142.640659 279.719332,141.307672 280.006,140.247 C280.292668,139.186328 280.708331,138.426669 281.253,137.968 C281.797669,137.509331 282.327997,137.208334 282.844,137.065 C283.360003,136.921666 283.961997,136.85 284.65,136.85 L287.488,137.194 L287.488,128.336 C287.488,127.017327 287.531,126.04267 287.617,125.412 C287.703,124.78133 287.960998,124.079004 288.391,123.305 C288.821002,122.530996 289.580661,121.986335 290.67,121.671 C291.759339,121.355665 293.221324,121.198 295.056,121.198 C296.489341,121.198 297.678995,121.341332 298.625,121.628 C299.571005,121.914668 300.301997,122.244331 300.818,122.617 C301.334003,122.989669 301.720999,123.562996 301.979,124.337 C302.237001,125.111004 302.380333,125.784664 302.409,126.358 C302.437667,126.931336 302.452,127.733995 302.452,128.766 L302.452,137.194 C304.974679,136.964666 306.86666,136.85 308.128,136.85 C309.446673,136.85 310.435663,136.893 311.095,136.979 C311.754337,137.065 312.499663,137.322998 313.331,137.753 C314.162337,138.183002 314.749998,138.942661 315.094,140.032 C315.438002,141.121339 315.61,142.583324 315.61,144.418 C315.61,146.195342 315.438002,147.628661 315.094,148.718 C314.749998,149.807339 314.148004,150.566998 313.288,150.997 C312.427996,151.427002 311.668337,151.685 311.009,151.771 C310.349663,151.857 309.360673,151.9 308.042,151.9 Z M357.234,136.678 C359.011342,136.678 360.444661,136.849998 361.534,137.194 C362.623339,137.538002 363.382998,138.139996 363.813,139 C364.243002,139.860004 364.501,140.619663 364.587,141.279 C364.673,141.938337 364.716,142.927327 364.716,144.246 L364.716,174.346 C364.716,175.664673 364.673,176.653663 364.587,177.313 C364.501,177.972337 364.243002,178.717663 363.813,179.549 C363.382998,180.380337 362.623339,180.967998 361.534,181.312 C360.444661,181.656002 358.982676,181.828 357.148,181.828 C354.567987,181.828 352.747672,181.441004 351.687,180.667 C350.626328,179.892996 350.010001,178.760674 349.838,177.27 C347.716656,180.308682 344.27669,181.828 339.518,181.828 C334.357974,181.828 329.656688,179.563356 325.414,175.034 C321.171312,170.504644 319.05,165.201364 319.05,159.124 C319.05,153.218637 321.185645,148.015689 325.457,143.515 C329.728355,139.014311 334.415308,136.764 339.518,136.764 C341.467343,136.764 343.244659,137.107997 344.85,137.796 C346.455341,138.484003 347.57333,139.128997 348.204,139.731 C348.83467,140.333003 349.350665,140.920664 349.752,141.494 C349.924001,139.888659 350.540328,138.684671 351.601,137.882 C352.661672,137.079329 354.53932,136.678 357.234,136.678 Z M341.84,166.778 C343.90401,166.778 345.638326,166.004008 347.043,164.456 C348.447674,162.907992 349.15,161.188009 349.15,159.296 C349.15,157.461324 348.47634,155.741341 347.129,154.136 C345.78166,152.530659 343.961345,151.728 341.668,151.728 C339.431989,151.728 337.611674,152.530659 336.207,154.136 C334.802326,155.741341 334.1,157.489991 334.1,159.382 C334.1,161.274009 334.845326,162.979659 336.336,164.499 C337.826674,166.018341 339.661322,166.778 341.84,166.778 Z" id="chota-copy" stroke="none" fill="url(#linearGradient-1)" fill-rule="evenodd"></path>
</svg>
